<svg width="16" height="16" viewBox="0 0 16 16" fill="none" xmlns="http://www.w3.org/2000/svg">
<path fill-rule="evenodd" clip-rule="evenodd" d="M15.9171 4.6922C15.8566 3.41292 15.5644 2.27973 14.6272 1.3461C13.6935 0.412472 12.5604 0.120267 11.2811 0.0561247C9.96258 -0.0187082 6.01069 -0.0187082 4.6922 0.0561247C3.41648 0.116704 2.2833 0.408909 1.3461 1.34254C0.408909 2.27617 0.120267 3.40935 0.0561247 4.68864C-0.0187082 6.00713 -0.0187082 9.95902 0.0561247 11.2775C0.116704 12.5568 0.408909 13.69 1.3461 14.6236C2.2833 15.5572 3.41292 15.8494 4.6922 15.9136C6.01069 15.9884 9.96258 15.9884 11.2811 15.9136C12.5604 15.853 13.6935 15.5608 14.6272 14.6236C15.5608 13.69 15.853 12.5568 15.9171 11.2775C15.992 9.95902 15.992 6.01069 15.9171 4.6922ZM12.2503 4.67795C12.7777 4.67795 13.2053 4.2539 13.2053 3.72294C13.2053 3.19555 12.7777 2.76793 12.2503 2.76793C11.7229 2.76793 11.2953 3.19555 11.2953 3.72294C11.2953 4.25033 11.7194 4.67795 12.2503 4.67795ZM7.98842 3.89042C5.72205 3.89042 3.89399 5.71848 3.89399 7.98485C3.89399 10.2512 5.72205 12.0793 7.98842 12.0793C10.2548 12.0793 12.0829 10.2512 12.0829 7.98485C12.0829 5.71848 10.2548 3.89042 7.98842 3.89042ZM7.98842 10.6468C6.52383 10.6468 5.3265 9.45301 5.3265 7.98486C5.3265 6.5167 6.52027 5.32294 7.98842 5.32294C9.45657 5.32294 10.6503 6.5167 10.6503 7.98486C10.6503 9.45301 9.45301 10.6468 7.98842 10.6468ZM12.6958 14.2102C13.3978 13.9287 13.9359 13.3906 14.2138 12.6922C14.5714 11.7936 14.5515 9.828 14.5386 8.55383C14.5365 8.34247 14.5345 8.15014 14.5345 7.98486C14.5345 7.81954 14.5365 7.62724 14.5386 7.41595C14.5515 6.14245 14.5714 4.17914 14.2138 3.27751C13.9323 2.5755 13.3942 2.03742 12.6958 1.75947C11.7943 1.4038 9.81921 1.42275 8.54541 1.43497C8.33876 1.43695 8.15057 1.43875 7.98842 1.43875C7.82311 1.43875 7.63081 1.4368 7.41952 1.43466C6.14602 1.42176 4.1827 1.40187 3.28107 1.75947C2.57906 2.04098 2.04098 2.57906 1.76303 3.27751C1.40736 4.17893 1.42631 6.15406 1.43853 7.42787C1.44051 7.63451 1.44232 7.8227 1.44232 7.98486C1.44232 8.15017 1.44037 8.34247 1.43823 8.55376C1.42532 9.82725 1.40543 11.7906 1.76303 12.6922C2.04454 13.3942 2.58263 13.9323 3.28107 14.2102C4.1825 14.5659 6.15763 14.547 7.43144 14.5347C7.63808 14.5328 7.82627 14.531 7.98842 14.531C8.15373 14.531 8.34603 14.5329 8.55732 14.535C9.83082 14.548 11.7941 14.5678 12.6958 14.2102Z" fill="#262626"/>
</svg>
