<svg width="16" height="16" viewBox="0 0 16 16" fill="none" xmlns="http://www.w3.org/2000/svg">
<path fill-rule="evenodd" clip-rule="evenodd" d="M1.92143 3.86071C0.860714 3.86071 0 2.98214 0 1.92143C0 0.860714 0.860714 0 1.92143 0C2.98214 0 3.84286 0.860714 3.84286 1.92143C3.84286 2.98214 2.98214 3.86071 1.92143 3.86071ZM3.58214 16H0.264286V5.31786H3.58214V16ZM12.6893 16H16H16.0036V10.1321C16.0036 7.26071 15.3857 5.05 12.0286 5.05C10.4143 5.05 9.33214 5.93571 8.88929 6.775H8.84286V5.31786H5.66071V16H8.975V10.7107C8.975 9.31786 9.23929 7.97143 10.9643 7.97143C12.6643 7.97143 12.6893 9.56071 12.6893 10.8V16Z" fill="#262626"/>
</svg>
